<svg id="Capa_1" data-name="Capa 1" xmlns="http://www.w3.org/2000/svg" viewBox="0 0 165 61"><defs><style>.cls-1{fill:#ebebeb;}.cls-2{fill:#3c3c3b;}.cls-3{fill:#3d3d3b;}</style></defs><rect class="cls-1" width="165" height="61"/><path class="cls-2" d="M17.94,21.47H11.23a1.08,1.08,0,1,1,0-2.15h5.63V13.66a1.08,1.08,0,1,1,2.15,0v6.73A1.07,1.07,0,0,1,17.94,21.47Z"/><path class="cls-2" d="M34.14,48.42H13.24a3.1,3.1,0,0,1-3.09-3.1V20.39a1.09,1.09,0,0,1,.32-.76l6.71-6.74a1.07,1.07,0,0,1,.76-.31H36.46a2,2,0,0,1,2,2v1.67H36.32V14.73H18.38L12.3,20.84V45.32a1,1,0,0,0,.94,1h20.9Z"/><rect class="cls-2" x="15.82" y="39.53" width="11.51" height="2.16"/><rect class="cls-2" x="15.82" y="34.14" width="15.11" height="2.16"/><rect class="cls-2" x="15.82" y="28.75" width="15.11" height="2.16"/><rect class="cls-2" x="15.82" y="23.36" width="15.11" height="2.16"/><path class="cls-2" d="M37.39,47.75a1.09,1.09,0,0,1-.76-.32A8.54,8.54,0,0,1,34.31,42V21.07a3.09,3.09,0,1,1,6.17,0V42a8.48,8.48,0,0,1-2.33,5.48A1.07,1.07,0,0,1,37.39,47.75Zm0-27.63a1,1,0,0,0-.94.95V42a5.7,5.7,0,0,0,.94,2.95A5.7,5.7,0,0,0,38.33,42V21.07A1,1,0,0,0,37.39,20.12Z"/><path class="cls-2" d="M43.83,31.58H41.68V25.3a.27.27,0,0,0-.26-.27h-6V22.88h6a2.42,2.42,0,0,1,2.41,2.42Z"/><rect class="cls-2" x="35.38" y="38.85" width="4.03" height="2.16"/><path class="cls-2" d="M37.39,48.42a1.07,1.07,0,0,1-1.07-1.08v-.67a1.07,1.07,0,1,1,2.14,0v.67A1.07,1.07,0,0,1,37.39,48.42Z"/><path class="cls-3" d="M51.35,25q-1.8-1.82-1.8-5.8t1.84-5.8a7.11,7.11,0,0,1,5.32-1.89,12.14,12.14,0,0,1,3.19.42v1.81a11.44,11.44,0,0,0-3.07-.41,6,6,0,0,0-2.81.58,3.68,3.68,0,0,0-1.69,1.86,8.48,8.48,0,0,0-.57,3.39,8.65,8.65,0,0,0,.57,3.44A3.65,3.65,0,0,0,54,24.39a5.88,5.88,0,0,0,2.73.56,10.05,10.05,0,0,0,1.56-.12,10.88,10.88,0,0,0,1.61-.41v1.81a10.19,10.19,0,0,1-3.35.54A7,7,0,0,1,51.35,25Z"/><path class="cls-3" d="M62,25.37a6.18,6.18,0,0,1-1.27-4.26A6.24,6.24,0,0,1,62,16.84a5.24,5.24,0,0,1,7.13,0,6.15,6.15,0,0,1,1.27,4.26,6.18,6.18,0,0,1-1.28,4.26,4.51,4.51,0,0,1-3.55,1.42A4.56,4.56,0,0,1,62,25.37Zm5.59-1.16a5.24,5.24,0,0,0,.69-3.08A5.37,5.37,0,0,0,67.61,18a2.39,2.39,0,0,0-2-.92,2.37,2.37,0,0,0-2,.91,5.24,5.24,0,0,0-.69,3.08,5.41,5.41,0,0,0,.68,3.12,2.71,2.71,0,0,0,4.06,0Z"/><path class="cls-3" d="M72.68,15.61h1.74l.15,1.21h.11a4.46,4.46,0,0,1,1.51-1A4.75,4.75,0,0,1,78,15.44a3.5,3.5,0,0,1,2.61,1,4.22,4.22,0,0,1,1,3.05v7.13H79.51v-7A2.42,2.42,0,0,0,79,17.81a2,2,0,0,0-1.52-.53A3.71,3.71,0,0,0,76,17.6a3,3,0,0,0-1.23,1v8H72.68Z"/><path class="cls-3" d="M90.46,24.83v1.74a8.67,8.67,0,0,1-1.78.2C86.21,26.77,85,25.5,85,23V17.3H83V15.61h2l.36-4h1.72v4h3.26V17.3H87.06v5.34a2.61,2.61,0,0,0,.51,1.82,2.13,2.13,0,0,0,1.61.53A5.94,5.94,0,0,0,90.46,24.83Z"/><path class="cls-3" d="M92.08,15.61h1.73L94,17.07h.12a3.29,3.29,0,0,1,1.33-1.18,3.92,3.92,0,0,1,1.76-.4,4.3,4.3,0,0,1,.88.08v1.92a7.43,7.43,0,0,0-1-.07,4,4,0,0,0-1.63.36,3.27,3.27,0,0,0-1.28,1v7.77H92.08Z"/><path class="cls-3" d="M105.13,15.83a2.72,2.72,0,0,1,1.45,1.3,5.27,5.27,0,0,1,.48,2.46v7h-1.73l-.15-1.19h-.12a3.4,3.4,0,0,1-1.31,1,4.37,4.37,0,0,1-1.75.35,4,4,0,0,1-1.8-.37A2.71,2.71,0,0,1,99,25.33a3.14,3.14,0,0,1-.4-1.62,2.84,2.84,0,0,1,1-2.31,5.69,5.69,0,0,1,3.13-1l2.26-.24v-.69a3,3,0,0,0-.29-1.43,1.54,1.54,0,0,0-.87-.73,4.37,4.37,0,0,0-1.54-.22,10.92,10.92,0,0,0-1.45.11,9.25,9.25,0,0,0-1.49.36V15.92a9.22,9.22,0,0,1,1.58-.36,12.52,12.52,0,0,1,1.68-.12A6.7,6.7,0,0,1,105.13,15.83Zm-1.23,9.11a3.15,3.15,0,0,0,1.12-.86V21.49l-2.09.21a3.19,3.19,0,0,0-1.69.56,1.55,1.55,0,0,0-.52,1.25,1.65,1.65,0,0,0,.47,1.27,2,2,0,0,0,1.41.44A3.27,3.27,0,0,0,103.9,24.94Z"/><path class="cls-3" d="M115.92,24.83v1.74a8.67,8.67,0,0,1-1.78.2c-2.47,0-3.7-1.27-3.7-3.79V17.3h-2V15.61h2l.36-4h1.72v4h3.26V17.3h-3.26v5.34a2.61,2.61,0,0,0,.51,1.82,2.13,2.13,0,0,0,1.61.53A5.94,5.94,0,0,0,115.92,24.83Z"/><path class="cls-3" d="M118.14,25.37a6.18,6.18,0,0,1-1.27-4.26,6.24,6.24,0,0,1,1.26-4.27,5.24,5.24,0,0,1,7.13,0,6.15,6.15,0,0,1,1.27,4.26,6.18,6.18,0,0,1-1.28,4.26,4.51,4.51,0,0,1-3.55,1.42A4.56,4.56,0,0,1,118.14,25.37Zm5.59-1.16a5.24,5.24,0,0,0,.69-3.08,5.37,5.37,0,0,0-.69-3.12,2.39,2.39,0,0,0-2-.92,2.37,2.37,0,0,0-2,.91,5.24,5.24,0,0,0-.69,3.08,5.41,5.41,0,0,0,.68,3.12,2.71,2.71,0,0,0,4.06,0Z"/><path class="cls-3" d="M128.43,26.32V24.69a10.58,10.58,0,0,0,3.13.48,3.27,3.27,0,0,0,1.87-.42,1.35,1.35,0,0,0,.6-1.2,1.3,1.3,0,0,0-.34-1,2.17,2.17,0,0,0-1.13-.51L131,21.75a3.81,3.81,0,0,1-2.14-1,2.91,2.91,0,0,1-.66-2,3,3,0,0,1,.5-1.72,3.26,3.26,0,0,1,1.52-1.15,6.89,6.89,0,0,1,2.53-.4,10.31,10.31,0,0,1,2.66.33V17.4a10,10,0,0,0-2.61-.35,3.52,3.52,0,0,0-2,.44,1.46,1.46,0,0,0-.3,2.11,2.13,2.13,0,0,0,1.11.52l1.56.31a4,4,0,0,1,2.17,1,2.82,2.82,0,0,1,.68,2,3.08,3.08,0,0,1-.51,1.78A3.25,3.25,0,0,1,134,26.38a6.34,6.34,0,0,1-2.4.4A10.2,10.2,0,0,1,128.43,26.32Z"/><path class="cls-3" d="M51.53,48.39A3.91,3.91,0,0,1,50,46.6a7.34,7.34,0,0,1-.57-3.1,6.14,6.14,0,0,1,1.42-4.41,5.62,5.62,0,0,1,4.22-1.47,10.42,10.42,0,0,1,1.6.13V32.46h2.08v16.3H57l-.14-1.18h-.12a3.46,3.46,0,0,1-1.26,1,3.79,3.79,0,0,1-1.7.37A4.45,4.45,0,0,1,51.53,48.39Zm4.08-1.49a2.59,2.59,0,0,0,1-.87V39.45A7.69,7.69,0,0,0,55,39.28a3.35,3.35,0,0,0-2.63,1,4.57,4.57,0,0,0-.86,3.08,4.74,4.74,0,0,0,.72,3,2.48,2.48,0,0,0,2,.88A3.09,3.09,0,0,0,55.61,46.9Z"/><path class="cls-3" d="M70,43.93H63.12a4.8,4.8,0,0,0,.42,2A2.28,2.28,0,0,0,64.69,47a4.88,4.88,0,0,0,2,.34,10.7,10.7,0,0,0,2.73-.42v1.66a11.63,11.63,0,0,1-3,.42,5.48,5.48,0,0,1-4.08-1.36A6,6,0,0,1,61,43.26a6.41,6.41,0,0,1,1.2-4.21,4.19,4.19,0,0,1,3.4-1.43A3.85,3.85,0,0,1,68.84,39,6.86,6.86,0,0,1,70,43.32Zm-6.19-4a4.82,4.82,0,0,0-.66,2.72H68a4.93,4.93,0,0,0-.64-2.72,2,2,0,0,0-1.77-.82A2.15,2.15,0,0,0,63.77,39.88Z"/><path class="cls-3" d="M82.93,38a2.76,2.76,0,0,1,1.45,1.3,5.32,5.32,0,0,1,.48,2.46v7H83.13L83,47.57h-.12a3.4,3.4,0,0,1-1.31,1,4.37,4.37,0,0,1-1.75.35,4,4,0,0,1-1.8-.37,2.65,2.65,0,0,1-1.16-1.06,3.13,3.13,0,0,1-.4-1.61,2.81,2.81,0,0,1,1-2.31,5.61,5.61,0,0,1,3.13-1l2.26-.23v-.7a3,3,0,0,0-.29-1.43,1.58,1.58,0,0,0-.87-.73,4.37,4.37,0,0,0-1.54-.22,9.54,9.54,0,0,0-1.45.12,8.28,8.28,0,0,0-1.49.35V38.1a10.27,10.27,0,0,1,1.58-.36,12.52,12.52,0,0,1,1.68-.12A6.7,6.7,0,0,1,82.93,38ZM81.7,47.12a3,3,0,0,0,1.12-.86V43.67l-2.09.21a3.19,3.19,0,0,0-1.69.56,1.56,1.56,0,0,0-.52,1.25A1.64,1.64,0,0,0,79,47a2,2,0,0,0,1.41.44A3.11,3.11,0,0,0,81.7,47.12Z"/><path class="cls-3" d="M89.13,48.39a3.91,3.91,0,0,1-1.54-1.79A7.34,7.34,0,0,1,87,43.5a6.14,6.14,0,0,1,1.42-4.41,5.62,5.62,0,0,1,4.22-1.47,10.42,10.42,0,0,1,1.6.13V32.46h2.08v16.3H94.58l-.14-1.18h-.12a3.46,3.46,0,0,1-1.26,1,3.79,3.79,0,0,1-1.7.37A4.45,4.45,0,0,1,89.13,48.39Zm4.08-1.49A2.59,2.59,0,0,0,94.26,46V39.45a7.69,7.69,0,0,0-1.63-.17,3.35,3.35,0,0,0-2.63,1,4.57,4.57,0,0,0-.86,3.08,4.74,4.74,0,0,0,.72,3,2.48,2.48,0,0,0,2,.88A3.09,3.09,0,0,0,93.21,46.9Z"/><path class="cls-3" d="M99.16,32.46h2.08V39h.11a4.16,4.16,0,0,1,1.45-1,4.67,4.67,0,0,1,1.81-.34,3.35,3.35,0,0,1,2.52,1,4.18,4.18,0,0,1,.94,3v7.14H106v-7a2.4,2.4,0,0,0-.53-1.74,2.07,2.07,0,0,0-1.52-.53,3.72,3.72,0,0,0-1.48.32,3.07,3.07,0,0,0-1.22,1v8H99.16Z"/><path class="cls-3" d="M119.19,43.93h-6.84a4.8,4.8,0,0,0,.42,2A2.28,2.28,0,0,0,113.92,47a4.88,4.88,0,0,0,2,.34,10.7,10.7,0,0,0,2.73-.42v1.66a11.63,11.63,0,0,1-3,.42,5.48,5.48,0,0,1-4.08-1.36,6,6,0,0,1-1.33-4.34,6.41,6.41,0,0,1,1.2-4.21,4.19,4.19,0,0,1,3.4-1.43A3.85,3.85,0,0,1,118.07,39a6.86,6.86,0,0,1,1.12,4.28Zm-6.19-4a4.82,4.82,0,0,0-.66,2.72h4.89a4.93,4.93,0,0,0-.64-2.72,2,2,0,0,0-1.77-.82A2.15,2.15,0,0,0,113,39.88Z"/><path class="cls-3" d="M121,48.51V46.87a10.58,10.58,0,0,0,3.13.48,3.27,3.27,0,0,0,1.87-.42,1.35,1.35,0,0,0,.6-1.2,1.31,1.31,0,0,0-.34-1,2.34,2.34,0,0,0-1.13-.51l-1.56-.31a3.81,3.81,0,0,1-2.14-1,2.91,2.91,0,0,1-.66-2,3,3,0,0,1,.5-1.71A3.13,3.13,0,0,1,122.74,38a6.67,6.67,0,0,1,2.53-.41,10.31,10.31,0,0,1,2.66.33v1.63a10,10,0,0,0-2.61-.35,3.6,3.6,0,0,0-2,.44,1.46,1.46,0,0,0-.3,2.11,2.13,2.13,0,0,0,1.11.53l1.56.3a4.08,4.08,0,0,1,2.17,1,2.82,2.82,0,0,1,.68,2,3.08,3.08,0,0,1-.51,1.78,3.12,3.12,0,0,1-1.51,1.14,6.34,6.34,0,0,1-2.4.4A10.52,10.52,0,0,1,121,48.51Z"/><path class="cls-3" d="M130.58,35.34a1.16,1.16,0,0,1-.35-.9,1.2,1.2,0,0,1,.35-.91,1.79,1.79,0,0,1,2,0,1.2,1.2,0,0,1,.35.91,1.16,1.16,0,0,1-.35.9,1.83,1.83,0,0,1-2,0Zm0,13.42v-11h2.09v11Z"/><path class="cls-3" d="M136.18,47.55a6.15,6.15,0,0,1-1.27-4.26A6.24,6.24,0,0,1,136.17,39a4.6,4.6,0,0,1,3.57-1.4A4.52,4.52,0,0,1,143.3,39a6.15,6.15,0,0,1,1.27,4.26,6.18,6.18,0,0,1-1.28,4.26A4.51,4.51,0,0,1,139.74,49,4.56,4.56,0,0,1,136.18,47.55Zm5.59-1.16a5.24,5.24,0,0,0,.69-3.08,5.37,5.37,0,0,0-.69-3.12,2.39,2.39,0,0,0-2-.92,2.37,2.37,0,0,0-2,.91,5.24,5.24,0,0,0-.69,3.08,5.41,5.41,0,0,0,.68,3.12,2.69,2.69,0,0,0,4.06,0Zm-3-10.2L141,32.46h2.23l-2.52,3.73Z"/><path class="cls-3" d="M146.84,37.79h1.74l.15,1.21h.11a4.29,4.29,0,0,1,1.51-1,4.75,4.75,0,0,1,1.84-.36,3.5,3.5,0,0,1,2.61,1,4.22,4.22,0,0,1,.95,3.05v7.13h-2.08v-7a2.42,2.42,0,0,0-.53-1.75,2,2,0,0,0-1.52-.53,3.71,3.71,0,0,0-1.47.32,3,3,0,0,0-1.23,1v8h-2.08Z"/></svg>