<svg id="Capa_1" data-name="Capa 1" xmlns="http://www.w3.org/2000/svg" viewBox="0 0 184 68.08"><defs><style>.cls-1{fill:#f29334;}.cls-2{fill:#fff;}</style></defs><rect class="cls-1" width="184" height="68.08"/><path class="cls-2" d="M108.34,51.45a.65.65,0,0,0,.41-.6c0-.38-.33-.59-.73-.64h0c.22,0,.57-.2.57-.55a.5.5,0,0,0-.23-.44,1.13,1.13,0,0,0-.61-.13h-1.26v.13c.34,0,.37,0,.37.46V51c0,.41,0,.43-.39.46v.13h1.11a1.81,1.81,0,0,0,.76-.13Zm-1-2.06c0-.14,0-.15.29-.15a.47.47,0,0,1,.53.47c0,.34-.24.46-.51.46h-.31v-.78Zm0,1.61v-.69h.29c.35,0,.66.17.66.57a.5.5,0,0,1-.56.54c-.27,0-.39-.05-.39-.42Z" transform="translate(1 0.54)"/><path class="cls-2" d="M110.14,51.45H110c-.16,0-.21-.07-.15-.26s.15-.43.19-.52h.78l.19.46c.11.26.06.3-.09.32h-.11v.13H112v-.13c-.25,0-.35,0-.49-.37L110.63,49l-.14,0-.83,2c-.16.38-.26.4-.5.43v.13h1v-.13Zm.29-1.83h0l.32.85h-.64l.31-.85Z" transform="translate(1 0.54)"/><path class="cls-2" d="M113.05,51.24a7.14,7.14,0,0,1,0-.72v-.81h0l1.7,1.9h.18V50.14c0-.4,0-.6,0-.72s.15-.2.38-.21v-.13h-1.07v.13c.28,0,.4.08.43.21s0,.32,0,.72v.77h0L113,49.08h-.69v.13c.38,0,.47.11.47.56v.75a4.38,4.38,0,0,1,0,.72c0,.13-.14.2-.37.21v.13h1.06v-.13c-.28,0-.4-.08-.42-.21Z" transform="translate(1 0.54)"/><path class="cls-2" d="M118.08,51.54a6.62,6.62,0,0,0,.21-.7l-.14,0c-.21.44-.42.66-.83.66-.6,0-1-.48-1-1.2s.33-1.1,1-1.1a.71.71,0,0,1,.78.62l.14,0c0-.25,0-.45-.07-.66a2.9,2.9,0,0,0-.79-.1,1.39,1.39,0,0,0-1.52,1.34,1.31,1.31,0,0,0,1.47,1.29,3.59,3.59,0,0,0,.79-.11Z" transform="translate(1 0.54)"/><path class="cls-2" d="M120.12,49a1.32,1.32,0,0,0-1.33,1.37,1.28,1.28,0,0,0,1.34,1.26,1.3,1.3,0,0,0,1.32-1.35A1.25,1.25,0,0,0,120.12,49Zm0,2.46c-.55,0-.88-.5-.88-1.23s.33-1.07.78-1.07.88.6.88,1.24-.35,1.06-.78,1.06Z" transform="translate(1 0.54)"/><path class="cls-2" d="M125.7,51.54c.06-.15.15-.49.21-.7l-.14,0c-.21.44-.42.66-.83.66-.6,0-1-.48-1-1.2a1,1,0,0,1,1-1.1.71.71,0,0,1,.78.62l.14,0c0-.25,0-.45-.07-.66A3,3,0,0,0,125,49a1.39,1.39,0,0,0-1.52,1.34,1.31,1.31,0,0,0,1.47,1.29,3.69,3.69,0,0,0,.79-.11Z" transform="translate(1 0.54)"/><path class="cls-2" d="M128.61,50.93l-.14,0a1.07,1.07,0,0,1-.2.38.75.75,0,0,1-.51.12,1.16,1.16,0,0,1-.45,0c-.07,0-.1-.17-.1-.38v-.61h.44c.35,0,.36,0,.41.32h.14v-.82h-.14c-.05.28-.06.31-.41.31h-.44v-.8c0-.14,0-.14.16-.14h.31a.68.68,0,0,1,.45.11.73.73,0,0,1,.14.36h.14c0-.26,0-.52,0-.62h-2v.12c.35,0,.38,0,.38.47V51c0,.42,0,.44-.42.47v.13h2.12c0-.11.11-.51.14-.65Z" transform="translate(1 0.54)"/><path class="cls-2" d="M129.49,51.24c0,.13-.14.2-.38.21v.13h1.06v-.13c-.28,0-.4-.08-.42-.21a7.14,7.14,0,0,1,0-.72v-.81h0l1.7,1.9h.18V50.14a4.48,4.48,0,0,1,0-.72c0-.13.14-.2.37-.21v-.13H131v.13c.28,0,.41.08.43.21s0,.32,0,.72v.77h0l-1.66-1.83h-.69v.13c.38,0,.47.11.47.56v.75a7.14,7.14,0,0,1,0,.72Z" transform="translate(1 0.54)"/><path class="cls-2" d="M133,51.45v.13h1.3v-.13c-.41,0-.44-.05-.44-.46V49.25h.25a.64.64,0,0,1,.45.11.78.78,0,0,1,.15.39h.14c0-.24,0-.59,0-.75h-.08a.19.19,0,0,1-.19.09h-1.73c-.11,0-.15,0-.21-.09h-.08c0,.19,0,.47-.05.76h.14a.89.89,0,0,1,.15-.37c.06-.07.17-.13.5-.13h.17V51c0,.41,0,.43-.42.46Z" transform="translate(1 0.54)"/><path class="cls-2" d="M136.71,51.45c-.36,0-.39-.05-.39-.46v-.48h.17c.15,0,.19,0,.27.15s.25.43.39.61a.88.88,0,0,0,.82.34h.08l0-.11a.74.74,0,0,1-.29-.17,1.88,1.88,0,0,1-.33-.4l-.37-.55c.32-.12.55-.31.55-.65a.59.59,0,0,0-.28-.52,1.31,1.31,0,0,0-.63-.13H135.5v.13c.35,0,.38,0,.38.47V51c0,.41,0,.43-.4.46v.13h1.23v-.13Zm-.39-2.05c0-.15,0-.16.26-.16a.52.52,0,0,1,.58.54.58.58,0,0,1-.21.48.75.75,0,0,1-.37.09h-.26v-1Z" transform="translate(1 0.54)"/><path class="cls-2" d="M140.17,51.44h-.11v.13h1.13v-.13c-.24,0-.35,0-.49-.37L139.87,49l-.14,0-.83,2c-.16.38-.25.4-.5.43v.13h1v-.13h-.13c-.16,0-.21-.07-.15-.26s.15-.43.19-.52h.78l.19.46c.11.26.06.3-.09.32Zm-.81-1,.31-.85h0l.33.85Z" transform="translate(1 0.54)"/><path class="cls-2" d="M143.84,50.91h-.15a.84.84,0,0,1-.19.37.64.64,0,0,1-.48.14,1,1,0,0,1-.41,0c-.08,0-.1-.15-.1-.37V49.68c0-.42,0-.45.42-.47v-.13h-1.25v.13c.36,0,.39,0,.39.47V51c0,.42,0,.45-.42.47v.13h2c0-.11.12-.54.15-.67Z" transform="translate(1 0.54)"/><path class="cls-2" d="M107.72,53.71h-1.23v.13c.34,0,.37,0,.37.47v1.31c0,.41,0,.43-.4.46v.13h1.1c.89,0,1.64-.41,1.64-1.34a1.09,1.09,0,0,0-.33-.82,1.66,1.66,0,0,0-1.15-.34Zm0,2.33c-.36,0-.4-.08-.4-.4V54.1c0-.11,0-.16,0-.18a.52.52,0,0,1,.28-.05A1,1,0,0,1,108.7,55c0,.65-.31,1.07-1,1.07Z" transform="translate(1 0.54)"/><path class="cls-2" d="M111.69,55.92a.75.75,0,0,1-.51.12,1.07,1.07,0,0,1-.44,0c-.08,0-.11-.16-.11-.38V55h.44c.35,0,.37,0,.41.32h.14v-.82h-.14c0,.29-.06.31-.41.31h-.44V54c0-.14,0-.14.16-.14h.32a.64.64,0,0,1,.44.11.73.73,0,0,1,.14.36h.14c0-.26,0-.52,0-.63h-2v.13c.36,0,.38,0,.38.47v1.3c0,.42,0,.44-.42.47v.13h2.12c0-.11.12-.51.14-.65l-.14,0a1.07,1.07,0,0,1-.2.38Z" transform="translate(1 0.54)"/><path class="cls-2" d="M115.8,55.9a.67.67,0,0,1-.49.14,1,1,0,0,1-.4,0c-.08,0-.11-.15-.11-.37V54.31c0-.42,0-.44.42-.47v-.13H114v.13c.36,0,.39,0,.39.47v1.3c0,.42,0,.45-.42.47v.13h2c0-.11.12-.54.15-.67H116a.84.84,0,0,1-.19.37Z" transform="translate(1 0.54)"/><path class="cls-2" d="M118.82,55.71,118,53.65l-.14,0-.82,2c-.17.39-.26.41-.51.44v.13h1v-.13h-.13c-.16,0-.21-.07-.14-.26s.15-.43.19-.52h.77l.2.46c.11.26.06.3-.1.32h-.11v.13h1.13v-.13c-.24,0-.35,0-.48-.37Zm-1.35-.61.31-.85h0l.33.85Z" transform="translate(1 0.54)"/><path class="cls-2" d="M123.15,55.56c-.12-.17-.3-.44-.36-.55a.69.69,0,0,0,.54-.65.59.59,0,0,0-.28-.52,1.31,1.31,0,0,0-.63-.13H121.2v.13c.35,0,.38,0,.38.47v1.31c0,.41,0,.43-.4.46v.13h1.23v-.13c-.36,0-.39,0-.39-.46v-.49h.17c.15,0,.19,0,.27.16s.25.43.39.61a.88.88,0,0,0,.82.34h.08l0-.11a.74.74,0,0,1-.29-.17,2.18,2.18,0,0,1-.33-.4Zm-.5-.67a.75.75,0,0,1-.37.09H122V54c0-.15,0-.16.26-.16a.52.52,0,0,1,.58.54.57.57,0,0,1-.21.48Z" transform="translate(1 0.54)"/><path class="cls-2" d="M126,55.92a.75.75,0,0,1-.51.12,1.07,1.07,0,0,1-.44,0c-.08,0-.11-.16-.11-.38V55h.44c.35,0,.36,0,.41.32H126v-.82h-.14c0,.29-.06.31-.41.31H125V54c0-.14,0-.14.16-.14h.31a.66.66,0,0,1,.45.11.73.73,0,0,1,.14.36h.14c0-.26,0-.52,0-.63h-2v.13c.35,0,.38,0,.38.47v1.3c0,.42,0,.44-.42.47v.13h2.12c0-.11.12-.51.14-.65l-.14,0a1.07,1.07,0,0,1-.2.38Z" transform="translate(1 0.54)"/><path class="cls-2" d="M128.17,53.71h-1.24v.13c.34,0,.37,0,.37.47v1.31c0,.41,0,.43-.39.46v.13h1.27v-.13c-.41,0-.44,0-.44-.46v-.47l.32.07h.22c.45-.05.83-.31.83-.77s-.39-.73-.94-.73Zm-.11,1.34a1,1,0,0,1-.32-.06v-.92c0-.19,0-.2.28-.2a.53.53,0,0,1,.61.57.55.55,0,0,1-.57.61Z" transform="translate(1 0.54)"/><path class="cls-2" d="M131.55,53.84c.28,0,.4.08.43.21s0,.32,0,.72V55c0,.61-.19,1-.75,1s-.71-.37-.71-1v-.76c0-.41,0-.44.38-.47v-.13h-1.22v.13c.37,0,.4.06.4.47v.87a1,1,0,0,0,.31.89,1.13,1.13,0,0,0,.72.21,1.09,1.09,0,0,0,.77-.28,1.27,1.27,0,0,0,.3-.88v-.35c0-.4,0-.6,0-.72s.14-.2.38-.21v-.13h-1.07v.13Z" transform="translate(1 0.54)"/><path class="cls-2" d="M131.67,52.57c-.08,0-.14-.06-.19,0l-.65.87.09.06.83-.71c.1-.08.1-.15,0-.22l-.07,0Z" transform="translate(1 0.54)"/><path class="cls-2" d="M134.68,54.85v0c.23,0,.57-.2.57-.54a.49.49,0,0,0-.23-.45,1.09,1.09,0,0,0-.6-.13h-1.27v.13c.34,0,.38,0,.38.46v1.32c0,.41,0,.43-.4.46v.13h1.11a1.81,1.81,0,0,0,.76-.13.64.64,0,0,0,.41-.6c0-.38-.33-.59-.73-.63ZM134,54c0-.14,0-.15.29-.15a.47.47,0,0,1,.53.47c0,.34-.24.46-.51.46H134V54Zm.39,2c-.27,0-.39,0-.39-.42v-.69h.29c.36,0,.66.17.66.56a.5.5,0,0,1-.56.55Z" transform="translate(1 0.54)"/><path class="cls-2" d="M137.91,55.9a.67.67,0,0,1-.49.14,1,1,0,0,1-.4,0c-.08,0-.11-.15-.11-.37V54.31c0-.42,0-.44.42-.47v-.13h-1.25v.13c.36,0,.4,0,.4.47v1.3c0,.42,0,.45-.42.47v.13h2c0-.11.12-.54.14-.67h-.14a1,1,0,0,1-.19.37Z" transform="translate(1 0.54)"/><path class="cls-2" d="M138.7,53.84c.36,0,.4,0,.4.47v1.31c0,.41,0,.43-.4.46v.13h1.22v-.13c-.36,0-.39,0-.39-.46V54.31c0-.42,0-.44.39-.47v-.13H138.7v.13Z" transform="translate(1 0.54)"/><path class="cls-2" d="M142,56.11c-.6,0-1-.48-1-1.2a1,1,0,0,1,1-1.1.72.72,0,0,1,.79.62l.14,0c0-.25,0-.45-.08-.66a2.87,2.87,0,0,0-.78-.1A1.39,1.39,0,0,0,140.54,55,1.31,1.31,0,0,0,142,56.28a3.81,3.81,0,0,0,.8-.11c.06-.14.15-.49.21-.7l-.14,0c-.21.44-.42.66-.84.66Z" transform="translate(1 0.54)"/><path class="cls-2" d="M145.69,55.71l-.83-2.06-.14,0-.83,2c-.16.39-.26.41-.5.44v.13h1v-.13h-.13c-.16,0-.21-.07-.15-.26s.15-.43.19-.52h.78l.19.46c.11.26.06.3-.09.32h-.11v.13h1.13v-.13c-.25,0-.35,0-.49-.37Zm-1.35-.61.32-.85h0l.32.85Z" transform="translate(1 0.54)"/><path class="cls-2" d="M150.22,55.71l-.83-2.06-.14,0-.83,2c-.16.39-.26.41-.51.44v.13h1v-.13h-.12c-.17,0-.22-.07-.15-.26s.15-.43.19-.52h.78l.19.46c.11.26.06.3-.1.32h-.1v.13h1.13v-.13c-.25,0-.35,0-.49-.37Zm-1.35-.61.32-.85h0l.32.85Z" transform="translate(1 0.54)"/><path class="cls-2" d="M153.15,55.56c-.11-.17-.3-.44-.36-.55a.69.69,0,0,0,.54-.65.6.6,0,0,0-.27-.52,1.32,1.32,0,0,0-.64-.13h-1.21v.13c.34,0,.38,0,.38.47v1.31c0,.41,0,.43-.4.46v.13h1.22v-.13c-.35,0-.39,0-.39-.46v-.49h.17c.16,0,.2,0,.27.16s.26.43.39.61a.89.89,0,0,0,.82.34h.09v-.11a.74.74,0,0,1-.29-.17,3.49,3.49,0,0,1-.33-.4Zm-.49-.67a.76.76,0,0,1-.38.09H152V54c0-.15,0-.16.27-.16a.52.52,0,0,1,.57.54.59.59,0,0,1-.2.48Z" transform="translate(1 0.54)"/><path class="cls-2" d="M155.62,55.15c.47,0,.49.06.49.32v.39c0,.22-.21.25-.4.25a1.07,1.07,0,0,1-1.06-1.19,1,1,0,0,1,1-1.11.73.73,0,0,1,.81.63h.14c0-.33-.05-.55-.06-.68a3,3,0,0,0-.79-.1A1.41,1.41,0,0,0,154.15,55a1.37,1.37,0,0,0,1.54,1.29,3.77,3.77,0,0,0,.9-.16,1.12,1.12,0,0,1,0-.35v-.3c0-.27,0-.29.25-.32V55h-1.18v.13Z" transform="translate(1 0.54)"/><path class="cls-2" d="M159.22,55.92a.74.74,0,0,1-.5.12,1.16,1.16,0,0,1-.45,0c-.08,0-.11-.16-.11-.38V55h.45c.35,0,.36,0,.4.32h.14v-.82H159c0,.29,0,.31-.4.31h-.45V54c0-.14,0-.14.17-.14h.31a.68.68,0,0,1,.45.11.85.85,0,0,1,.14.36h.14c0-.26,0-.52-.05-.63h-2v.13c.35,0,.38,0,.38.47v1.3c0,.42,0,.44-.42.47v.13h2.11c0-.11.12-.51.15-.65l-.15,0a.83.83,0,0,1-.2.38Z" transform="translate(1 0.54)"/><path class="cls-2" d="M161.91,53.84c.28,0,.4.08.42.21a4.48,4.48,0,0,1,0,.72v.77h0l-1.67-1.83H160v.13c.38,0,.47.11.47.56v.75a4.48,4.48,0,0,1,0,.72c0,.13-.14.2-.37.21v.13h1.06v-.13c-.28,0-.4-.08-.42-.21a5,5,0,0,1,0-.72v-.81h0l1.71,1.9h.18V54.77c0-.4,0-.6,0-.72s.14-.2.38-.21v-.13h-1.07v.13Z" transform="translate(1 0.54)"/><path class="cls-2" d="M165.72,53.62a.19.19,0,0,1-.19.09H163.8c-.11,0-.16,0-.22-.09h-.07c0,.19,0,.47,0,.76h.13a.89.89,0,0,1,.15-.37c.07-.07.18-.13.51-.13h.17v1.74c0,.41,0,.43-.42.46v.13h1.29v-.13c-.4,0-.43,0-.43-.46V53.88h.25a.64.64,0,0,1,.45.11.71.71,0,0,1,.14.39h.14c0-.24,0-.59-.05-.75Z" transform="translate(1 0.54)"/><path class="cls-2" d="M166.43,53.84c.36,0,.39,0,.39.47v1.31c0,.41,0,.43-.39.46v.13h1.22v-.13c-.36,0-.39,0-.39-.46V54.31c0-.42,0-.44.39-.47v-.13h-1.22v.13Z" transform="translate(1 0.54)"/><path class="cls-2" d="M170.1,53.84c.28,0,.4.08.43.21s0,.32,0,.72v.77h0l-1.66-1.83h-.69v.13c.38,0,.47.11.47.56v.75a4.48,4.48,0,0,1,0,.72c0,.13-.13.2-.37.21v.13h1.06v-.13c-.28,0-.4-.08-.42-.21s0-.32,0-.72v-.81h0l1.7,1.9h.18V54.77a4.48,4.48,0,0,1,0-.72c0-.13.14-.2.37-.21v-.13H170.1v.13Z" transform="translate(1 0.54)"/><path class="cls-2" d="M173.7,55.71l-.83-2.06-.14,0-.83,2c-.16.39-.26.41-.5.44v.13h1v-.13h-.13c-.17,0-.22-.07-.15-.26s.15-.43.19-.52h.78l.19.46c.11.26.06.3-.1.32h-.1v.13h1.13v-.13c-.25,0-.35,0-.49-.37Zm-1.35-.61.31-.85h0l.32.85Z" transform="translate(1 0.54)"/><path class="cls-2" d="M96,43.79a8.85,8.85,0,1,0,8.85,8.84A8.84,8.84,0,0,0,96,43.79Zm0,17.48a8.64,8.64,0,1,1,8.64-8.64A8.63,8.63,0,0,1,96,61.27Z" transform="translate(1 0.54)"/><path class="cls-2" d="M96,44.25a8.39,8.39,0,1,0,8.39,8.38A8.38,8.38,0,0,0,96,44.25Zm7,12.59c-.06.1-.11.11-.22.11-.26,0-.22-.46-.47-.46s-.23.45-.45.45-.17-.29-.44-.29a4.92,4.92,0,0,1-.73.19c-.15,0-.22-.07-.22-.27s-.21-.31-.42-.31h-.9c-.53,0-.79-.32-.85-.26s.25.45.67.65.52.51.62.51.09-.08.09-.12a.39.39,0,0,0-.17-.31s0-.06.07-.06c.4,0,.33.54,1,.54a4.64,4.64,0,0,0,.61-.12c.33,0,.26.69.63.69.11,0,.13-.06.13-.19s0-.43.09-.43.25.22.61.22a6.18,6.18,0,0,1-.59.74.51.51,0,0,1-.39.19c-.57,0-.46-.47-.88-.47a.67.67,0,0,0-.49.13c-.06.06,0,.17.1.17.42,0,.29.58.62.58s.31-.18.31-.07a.45.45,0,0,1-.48.42c-.5,0-.29-.39-1-.39a.57.57,0,0,1-.54-.52c0-.12.18,0,.54,0,.2,0,.32,0,.32-.13s-.14-.13-.32-.13c-.67,0-.55-.47-1.09-.82a2,2,0,0,1-.63-.55A1.36,1.36,0,0,1,97.9,56c0-.36-.2-.78-.58-.78-.13,0-.13.12-.13.35s-.22.45-.13.55.24-.14.39-.14.09.39.55.85,1,.46,1,1.4c0,.17-.07.33-.19.33s-.16-.41-.16-.66a.56.56,0,0,0-.36-.47s-.14,0-.14,0,.3.19.3.42-.09.46-.08.66c0,.63,1.14.28,1.14.87a.64.64,0,0,0,.28.5,8.24,8.24,0,0,1-3.77.92,7.8,7.8,0,0,1-1.74-.19.83.83,0,0,0,.37-.71c0-.48-.11-1.22-.11-1.7a1.29,1.29,0,0,1,.41-1.1L96,56.18c.11-.1.21-.22.21-.3s-.06-.05-.1,0A4.6,4.6,0,0,1,93.39,57c-.59,0-1.43-.18-1.43-.77,0-.31.28-.41.28-.68a.21.21,0,0,0-.22-.2c-.15,0-.31,0-.31-.13s.11-.15.25-.15c.43,0,.44.16.65.16a.07.07,0,0,0,.07-.09c0-.12-.19-.19-.33-.2s-.38-.3-.63-.37a.38.38,0,0,0,0-.45c.14,0,.15.09.3.09a.37.37,0,0,0,.39-.4.42.42,0,0,0-.31-.4s-.09,0-.09,0,0,0,.08.1a.38.38,0,0,1,.11.27c0,.1-.07.15-.18.15s-.27-.17-.48-.17a.24.24,0,0,0-.22.2c-.23-.09-.44-.13-.44-.27a3.78,3.78,0,0,1,.26-.66,14.38,14.38,0,0,0,.62-1.61c0-.13-.08-.13-.08-.25a1.72,1.72,0,0,1,.3-.69c.09-.09.36-.15.63.12s.53.27.65.39.32.51.46.51.09,0,.09,0-.09-.07-.19-.19-.24-.54-.47-.54-.43-.54-.66-.54A.51.51,0,0,1,92,49.8a.21.21,0,0,1,.2-.23c.07,0,.07,0,.07.12s0,.13.1.21a1.75,1.75,0,0,0,.36.19c.11.06.14.16.19.2s.13,0,.16,0,.08.16.14.22.25.09.37.21.1.41.31.62l.24.21c.07.07.11.22.18.28s.26.12.31.07-.1,0-.19-.16-.05-.15-.13-.24-.2-.19-.28-.3-.15-.44-.32-.62-.29-.15-.4-.25-.06-.19-.17-.29-.71-.24-.51-.44.31.15.39.08,0-.08.06-.13.18.07.23.07a.08.08,0,0,0,.08-.07c0-.21-.54-.35-.67-.35s-.08-.05-.08-.13-.15-.44-.15-.54.15-.14.15-.23-.06-.06-.12,0-.25.12-.25.26.16.27.16.54-.24.15-.41.21-.36.18-.36.4.26.25.18.33-.45-.11-.45-.41.4-.45.4-.51-.33-.18-.33-.5.37-.31.37-.83a.37.37,0,0,1,.19.27c0,.25-.29.38-.29.61a.4.4,0,0,0,.35.35c.05,0,.09,0,.09-.1s-.18-.14-.18-.36.76-.49.76-.79-.29-.24-.29-.42.26-.16.26-.16a.33.33,0,0,0,0,.16c0,.15.3.21.3.42s-.19.29-.13.35.32-.22.41-.13-.55.37-.55.63c0,.09.08.39.17.39S93,49,93,48.9a2.65,2.65,0,0,1,0-.27c0-.19.59-.34.59-.65s-.61-.5-.61-.7,0-.31.26-.34.14,0,.14,0-.13.14-.13.3.62.31.62.66c0,.12.09.15.23.19.36.08,1,.18,1.06.18s0,0,0-.07,0-.09-.15-.12A5,5,0,0,1,94,47.9c0-.07.21-.19.68-.39A5.08,5.08,0,0,1,96.56,47a6.73,6.73,0,0,1,2.43.79c0,.12.23.22.26.26a3.94,3.94,0,0,1,.57,1,.24.24,0,0,0,.13.14c.08,0,.07-.14.07-.14,0-.24-.48-.92-.48-1s0-.1,0-.17,0-.12-.13-.17c-.79-.38-1.91-.7-1.91-.81s.43-.07.43-.27-.91.16-1.42.16-1.2.16-1.2-.35.73-.65,1.24-.65a4.85,4.85,0,0,1,3.49,1.28,6.39,6.39,0,0,1,1.16,3.26,17.73,17.73,0,0,1-.27,2.09.43.43,0,0,0,.45.52c.31,0,.28-.12.55-.12a.24.24,0,0,1,.26.24c0,.33.09.53.36.53a.34.34,0,0,0,.32-.35c0-.12,0-.29-.18-.29s.09.4-.15.4-.12-.13-.12-.29a.47.47,0,0,0-.5-.45c-.29,0-.36.12-.54.1s-.22-.09-.21-.27a13.82,13.82,0,0,0,.26-2.11A6.47,6.47,0,0,0,100.32,47a5.06,5.06,0,0,0-3.72-1.39c-.71,0-1.51.2-1.51.87a.63.63,0,0,0,.22.46s0,.14,0,.16a6.24,6.24,0,0,0-1.34.56c-.11-.1-.55-.3-.55-.35s.1-.16.1-.34-.08-.4-.27-.4c0,0-.06,0-.06.05s0,.07,0,.11,0,0-.06,0a.77.77,0,0,0-.38.28.59.59,0,0,0-.32,0,.36.36,0,0,0-.2.33c0,.19.27.25.27.42s-.28.21-.28.21a.66.66,0,0,0-.71-.49s-.06,0-.06.07.15.22.15.37-.38.32-.38.69a.6.6,0,0,0,.25.47.59.59,0,0,0-.31.53.68.68,0,0,0,.38.61.28.28,0,0,1,.16.35,4.31,4.31,0,0,0-.19.65c0,.1,0,.16,0,.26s-.11.32-.26.67c-.26.62-.26.78-.6,1.46a.31.31,0,0,0,.06.36,1.66,1.66,0,0,0,.56.25h.11c.17,0,.21.24.07.36a.3.3,0,0,0-.08.17c0,.14.11.2.11.29s0,.12,0,.2c0,.39.41.3.41.45s-.18.24-.18.56c0,.89,1,1,1.76,1.09.58,0,.63.17.65.71,0,.71.26,1.25.26,1.84a.86.86,0,0,1-.16.48.43.43,0,0,1-.44.11,8.17,8.17,0,1,1,9.24-3.66Z" transform="translate(1 0.54)"/><path class="cls-2" d="M103,54.25c0-.34-.39-.4-.39-.4-.16,0-.29,0-.09.15s.25.12.25.25-.14.19-.32.27-.13,0-.13.15.15.12.49.18.37.09.37.24-.08.24,0,.24a.24.24,0,0,0,.24-.24c0-.32-.27-.4-.7-.48a.36.36,0,0,0,.31-.36Z" transform="translate(1 0.54)"/><path class="cls-2" d="M94,48.85c.17,0,.24-.21.42-.21s.29.15.46.15c.51,0,.67-.21,1.08-.21s.57.61,1,.61l.71,0c.41,0,.48.36.83.36.15,0,.35-.1.35-.21s-.12,0-.36,0-.3-.36-.82-.36l-.6,0c-.44,0-.4-.67-1.15-.67-.37,0-.61.24-1.08.24-.14,0-.2-.16-.46-.16s-.27.23-.42.23-.17-.15-.46-.15-.38.16-.38.31,0,.32.13.32.11,0,.11-.13,0-.11,0-.19.08-.12.16-.12.15.18.46.18Z" transform="translate(1 0.54)"/><path class="cls-2" d="M95.73,49.73a1.81,1.81,0,0,1,.63.25,1.51,1.51,0,0,0,.55.17c.69,0,1,1.37,1.76,1.37,0,0,.1,0,.1-.06s-.12-.13-.3-.22a.36.36,0,0,1-.19-.21c0-.09.06-.07.13-.07s.22,0,.22-.1-.06-.08-.22-.12-.37-.47-.72-.63c0,0-.13-.06-.13-.11a4.44,4.44,0,0,1,1-.07c.76,0,.66,1.38,1.63,1.38.37,0,.68.41.68.29a.7.7,0,0,0-.67-.45c-.63,0-.72-1.44-1.64-1.44-.43,0-1.29.12-1.62.12a2.3,2.3,0,0,1-1.07-.39c0-.06.22,0,.28-.08s0-.1-.06-.16a.54.54,0,0,0-.27-.08,1.1,1.1,0,0,0-.58.31,1.17,1.17,0,0,1-.73.34,2.16,2.16,0,0,1-.64-.08s-.12-.07-.17,0,0,.15.12.21a1.52,1.52,0,0,0,.69.14c.45,0,.79-.29,1.25-.29Z" transform="translate(1 0.54)"/><path class="cls-2" d="M100.73,53.69c-.12-.28-.25-.64-.39-.91a1.1,1.1,0,0,0-.87-.66c-.07,0-.24,0-.24.1s.38-.13.88.62a5.05,5.05,0,0,1,.37,1.07c.06.2.16.33.11.38s-.21,0-.29-.22-.31-.5-.45-.5-.13,0-.13,0,.23.23.15.32-.17-.09-.53-.28a1.72,1.72,0,0,0-.6-.18c-.07,0-.14,0-.14.07s.08.1.14.11a2.49,2.49,0,0,1,.72.46,4.65,4.65,0,0,0,2.5,1.27c.24,0,.31-.08.31-.12s0-.06-.19-.12c-.36-.14-.8-.43-.66-.56s.43,0,.52-.1-.06-.18-.21-.34a.68.68,0,0,0-.42-.15.61.61,0,0,1-.58-.3Z" transform="translate(1 0.54)"/><path class="cls-2" d="M97.42,52.59a4.06,4.06,0,0,0,1.23.18l.28,0,.24.11c.11,0,.18,0,.18-.05s-.17-.26-.37-.31a2.13,2.13,0,0,0-.32,0,3.55,3.55,0,0,1-1.12-.18,1.21,1.21,0,0,1-.39-.4c0-.07-.13-.16-.21-.08s.23.59.48.73Z" transform="translate(1 0.54)"/><path class="cls-2" d="M98.55,52.26c.2,0,.46-.1.46-.19S99,52,98.91,52l-.36,0c-1,0-1.11-1.79-2.44-1.79,0,0-.12,0-.15,0v0h0c0-.06-.06-.1-.24-.1a1.32,1.32,0,0,0-.44.12,1.38,1.38,0,0,1-.34.12h-.15s-.07,0-.07.07.24.19.4.19a1.7,1.7,0,0,0,.31-.06,1.67,1.67,0,0,1,.54-.07c1.31,0,1.37,1.83,2.59,1.83Z" transform="translate(1 0.54)"/><path class="cls-2" d="M102.87,55.49c-.37,0-.43.3-.9.3-.68,0-.83-.24-1.62-.24-.32,0-.53.19-1,.19-.31,0-1-.26-1-.6,0,0,.05-.06.11,0,.24.17.29.17.38.18s.14,0,.14-.09a3.37,3.37,0,0,0-.41-.3c-.32-.21-.82-.47-.82-.65s.06-.07.12-.06.56.15.68.15.1,0,.1-.09-.37-.24-.75-.33a3.72,3.72,0,0,1-.45-.13c-.09,0-.12,0-.12-.14s.06-.09.13-.09h.73c.16,0,.26,0,.26-.07s-.26-.17-.51-.17c-.57,0-1,0-1.35-.33s-.44-1.18-.74-1.48-.58-.24-.58-.36.26-.11.37-.11.36.17.45.17.07-.08.07-.1-.34-.3-.52-.3-.72.06-.88.06-.35-.21-.47-.21-.08,0-.08.08.29.37.55.52a6.19,6.19,0,0,1,.89.41c.16.14.08.22,0,.22s-.17,0-.3,0-.09,0-.09.08c0,.23.81.55.81,1.23,0,.42-.2.65-.2,1a.46.46,0,0,0,.15.39c.1.06.15,0,.15-.06s-.11-.1-.11-.33a2.12,2.12,0,0,1,.18-.66c0-.09,0-.23.12-.23s.19.47.37.47.24,0,.24,0-.5.33-.38.45S97,54,97,54s.12.08,0,.17-.41.4-.41.52.26.25.36.25.17-.12.29-.12c.39,0,.91.71,1.26.92a1.4,1.4,0,0,0,.77.21c.28,0,.53-.11.77-.11s.71.33,1,.33.1-.28.27-.28.37.28.57.28.67-.41.89-.41.27.16.27.36.22,0,.22-.23-.16-.42-.49-.42Z" transform="translate(1 0.54)"/><path class="cls-2" d="M94,49.45c.14,0,.37.08.45.08s.38-.08.38-.14-.25,0-.4-.1a.79.79,0,0,0-.43-.16.52.52,0,0,0-.29.06c-.07.07-.2,0-.2.1s.16.16.28.16Z" transform="translate(1 0.54)"/><path class="cls-2" d="M98.8,54.33c-.14.14.49.51.49.59s.14.33.36.33c.06,0,.12,0,.12-.08,0-.23-.88-.94-1-.84Z" transform="translate(1 0.54)"/><path class="cls-2" d="M94.86,52.12s-.11,0-.11.06a.1.1,0,0,0,0,.1,1.28,1.28,0,0,1,.3.89c0,.24-.25.7-.25,1,0,.52.42.64.5.55s-.31-.2-.31-.55.25-.75.25-1a1.78,1.78,0,0,0,0-.31c0-.08.06-.09.09,0a.53.53,0,0,1,.15.36c0,.33-.17.52-.17.66s0,.06,0,.06a.91.91,0,0,0,.34-.72c0-.43-.5-.74-.85-1.05Z" transform="translate(1 0.54)"/><path class="cls-2" d="M93.6,52c-.27-.15-1.25-.43-1.25-.5s.09-.09.27-.09.16,0,.16,0-.35-.21-.53-.21-.26.14-.26.24a1,1,0,0,0,.25.59c.05.05,0,.46.2.46s.21-.06.21-.28.62.05.62.12-.07.07-.07.1,0,.06.1.06.49-.08.49-.26-.07-.12-.19-.19Zm-1.25-.2c0-.07.13,0,.27,0A2.62,2.62,0,0,1,93,52c.08,0,.21.07.21.14a1.7,1.7,0,0,1-.88-.29Z" transform="translate(1 0.54)"/><path class="cls-2" d="M92.35,52.6s0,.13,0,.28,0,0,.16,0c.28-.17.34-.2.29-.25a.61.61,0,0,0-.4,0Z" transform="translate(1 0.54)"/><path class="cls-2" d="M96.88,57c0-.28.15-.52.1-.52s-.31.27-.31.49a.65.65,0,0,0,.24.57c.27.28.61.16.79.34s.07.46.07.67a1,1,0,0,0,.8,1c.32.13.2.52.31.52a.32.32,0,0,0,.3-.35.45.45,0,0,0-.31-.41c-.33-.13-.85-.17-.85-.76,0-.22.1-.47.1-.66s-.17-.39-.58-.39-.66-.19-.66-.5Z" transform="translate(1 0.54)"/><path class="cls-2" d="M10.44,13.26a3,3,0,0,1-.67-2.14V7H11v4.23a1.86,1.86,0,0,0,.38,1.29,1.5,1.5,0,0,0,1.16.41,1.52,1.52,0,0,0,1.16-.41,1.86,1.86,0,0,0,.37-1.29V7h1.22v4.11a3,3,0,0,1-.67,2.15,2.76,2.76,0,0,1-2.08.69A2.76,2.76,0,0,1,10.44,13.26Z" transform="translate(1 0.54)"/><path class="cls-2" d="M17.25,13.89a5,5,0,0,1-.89-.22v-1a6.19,6.19,0,0,0,.92.22,6,6,0,0,0,.92.08,1.87,1.87,0,0,0,1.07-.25.84.84,0,0,0,.34-.72.88.88,0,0,0-.11-.45.93.93,0,0,0-.34-.3,2.76,2.76,0,0,0-.68-.24L18,10.88a2.69,2.69,0,0,1-1.35-.7,1.73,1.73,0,0,1-.45-1.24,1.77,1.77,0,0,1,.69-1.49,3.22,3.22,0,0,1,2-.53,7.92,7.92,0,0,1,.85,0,5.83,5.83,0,0,1,.73.15v1A4.65,4.65,0,0,0,19.78,8,5.16,5.16,0,0,0,19,7.93a2.17,2.17,0,0,0-1.17.24.82.82,0,0,0-.37.7.94.94,0,0,0,.1.43.89.89,0,0,0,.31.3,2.91,2.91,0,0,0,.61.23l.46.11a3.07,3.07,0,0,1,1.45.72,1.71,1.71,0,0,1,.47,1.25,1.87,1.87,0,0,1-1.23,1.81A3.77,3.77,0,0,1,18.2,14,6.16,6.16,0,0,1,17.25,13.89Z" transform="translate(1 0.54)"/><path class="cls-2" d="M22.45,13.26a3,3,0,0,1-.67-2.14V7H23v4.23a1.86,1.86,0,0,0,.37,1.29,1.85,1.85,0,0,0,2.32,0,1.86,1.86,0,0,0,.37-1.29V7H27.3v4.11a3,3,0,0,1-.66,2.15,2.8,2.8,0,0,1-2.09.69A2.79,2.79,0,0,1,22.45,13.26Z" transform="translate(1 0.54)"/><path class="cls-2" d="M33.13,13.87l-.64-2H29.81l-.65,2H28L30.26,7h1.79l2.31,6.86Zm-3-3h2l-1-3.11Z" transform="translate(1 0.54)"/><path class="cls-2" d="M39.23,13.87l-1.89-2.64h-.2l-.8,0v2.66H35.12V7.15a9.44,9.44,0,0,1,2-.22,3.61,3.61,0,0,1,2.15.52A1.87,1.87,0,0,1,40,9.07a2,2,0,0,1-.37,1.25,2.15,2.15,0,0,1-1.11.73l2.05,2.82Zm-2.89-3.61c.3,0,.57.05.83.05a2.18,2.18,0,0,0,1.28-.3,1.08,1.08,0,0,0,.41-.93,1.13,1.13,0,0,0-.38-.94,2.05,2.05,0,0,0-1.21-.29,5.84,5.84,0,0,0-.93.08Z" transform="translate(1 0.54)"/><path class="cls-2" d="M41.4,13.87V7h1.24v6.86Z" transform="translate(1 0.54)"/><path class="cls-2" d="M45.19,13.58a2.52,2.52,0,0,1-1.08-1.17,4.56,4.56,0,0,1-.37-2,4.56,4.56,0,0,1,.37-2A2.62,2.62,0,0,1,45.19,7.3a3.41,3.41,0,0,1,1.65-.38,3.46,3.46,0,0,1,1.65.38,2.6,2.6,0,0,1,1.07,1.17,4.55,4.55,0,0,1,.38,2,4.58,4.58,0,0,1-.38,2,2.67,2.67,0,0,1-1.08,1.17,3.4,3.4,0,0,1-1.64.38A3.3,3.3,0,0,1,45.19,13.58Zm3-1.22a3,3,0,0,0,.47-1.89,3.13,3.13,0,0,0-.47-1.94,1.62,1.62,0,0,0-1.35-.6,1.66,1.66,0,0,0-1.36.59A3,3,0,0,0,45,10.41a3.18,3.18,0,0,0,.47,1.94,1.84,1.84,0,0,0,2.71,0Z" transform="translate(1 0.54)"/><path class="cls-2" d="M51.68,13.89a5,5,0,0,1-.89-.22v-1a6.19,6.19,0,0,0,.92.22,6,6,0,0,0,.92.08,1.87,1.87,0,0,0,1.07-.25A.84.84,0,0,0,54,12a.88.88,0,0,0-.11-.45.93.93,0,0,0-.34-.3,2.76,2.76,0,0,0-.68-.24l-.46-.12a2.69,2.69,0,0,1-1.35-.7,1.73,1.73,0,0,1-.45-1.24,1.77,1.77,0,0,1,.69-1.49,3.22,3.22,0,0,1,2-.53,7.92,7.92,0,0,1,.85,0,5.83,5.83,0,0,1,.73.15v1A4.65,4.65,0,0,0,54.21,8a5.16,5.16,0,0,0-.79-.05,2.2,2.2,0,0,0-1.17.24.82.82,0,0,0-.37.7.94.94,0,0,0,.1.43.89.89,0,0,0,.31.3,2.91,2.91,0,0,0,.61.23l.46.11a3.07,3.07,0,0,1,1.45.72,1.71,1.71,0,0,1,.47,1.25,1.87,1.87,0,0,1-1.23,1.81,3.77,3.77,0,0,1-1.42.24A6.16,6.16,0,0,1,51.68,13.89Z" transform="translate(1 0.54)"/><path class="cls-2" d="M63.15,8H59.79v2h2.9v1h-2.9v2.88H58.55V7h4.6Z" transform="translate(1 0.54)"/><path class="cls-2" d="M64,13.87V7h1.24v6.86Z" transform="translate(1 0.54)"/><path class="cls-2" d="M71.15,7h1.16v6.86H71.06l-3.26-5v5H66.63V7h1.25l3.27,5Z" transform="translate(1 0.54)"/><path class="cls-2" d="M78.27,13.87l-.65-2H74.94l-.64,2H73.08L75.39,7h1.79l2.31,6.86Zm-3-3h2l-1-3.11Z" transform="translate(1 0.54)"/><path class="cls-2" d="M84.78,7h1.16v6.86H84.69l-3.26-5v5H80.26V7h1.25l3.27,5Z" transform="translate(1 0.54)"/><path class="cls-2" d="M87.92,13.12A3.53,3.53,0,0,1,87,10.45a3.56,3.56,0,0,1,.9-2.65,3.53,3.53,0,0,1,2.59-.88A6.58,6.58,0,0,1,92,7.09v1A5.35,5.35,0,0,0,90.62,8a2.93,2.93,0,0,0-1.27.25,1.64,1.64,0,0,0-.76.8,3.58,3.58,0,0,0-.25,1.44,3.72,3.72,0,0,0,.25,1.46,1.63,1.63,0,0,0,.74.79,2.83,2.83,0,0,0,1.24.24A4.91,4.91,0,0,0,92,12.7v1a5.35,5.35,0,0,1-.74.17,5.52,5.52,0,0,1-.81.06A3.52,3.52,0,0,1,87.92,13.12Z" transform="translate(1 0.54)"/><path class="cls-2" d="M92.89,13.87V7h1.24v6.86Z" transform="translate(1 0.54)"/><path class="cls-2" d="M96.71,12.88h3.45v1H95.49V7h4.62V8h-3.4V9.86h2.93v1H96.71Z" transform="translate(1 0.54)"/><path class="cls-2" d="M105.26,13.87l-1.89-2.64h-.19l-.8,0v2.66h-1.22V7.15a9.28,9.28,0,0,1,2-.22,3.66,3.66,0,0,1,2.16.52,1.89,1.89,0,0,1,.71,1.62,2,2,0,0,1-.38,1.25,2.11,2.11,0,0,1-1.11.73l2.05,2.82Zm-2.88-3.61a8.17,8.17,0,0,0,.82.05,2.23,2.23,0,0,0,1.29-.3,1.08,1.08,0,0,0,.4-.93,1.1,1.1,0,0,0-.38-.94,2,2,0,0,0-1.2-.29,5.84,5.84,0,0,0-.93.08Z" transform="translate(1 0.54)"/><path class="cls-2" d="M108.31,13.58a2.5,2.5,0,0,1-1.07-1.17,4.55,4.55,0,0,1-.38-2,4.55,4.55,0,0,1,.38-2,2.6,2.6,0,0,1,1.07-1.17A3.46,3.46,0,0,1,110,6.92a3.41,3.41,0,0,1,1.65.38,2.6,2.6,0,0,1,1.07,1.17,4.55,4.55,0,0,1,.38,2,4.58,4.58,0,0,1-.38,2,2.6,2.6,0,0,1-1.07,1.17A3.46,3.46,0,0,1,110,14,3.3,3.3,0,0,1,108.31,13.58Zm3-1.22a3.09,3.09,0,0,0,.47-1.89,3.2,3.2,0,0,0-.47-1.94,1.84,1.84,0,0,0-2.71,0,3,3,0,0,0-.47,1.89,3.11,3.11,0,0,0,.47,1.94A1.6,1.6,0,0,0,110,13,1.66,1.66,0,0,0,111.32,12.36Z" transform="translate(1 0.54)"/><path class="cls-2" d="M114.81,13.89a4.64,4.64,0,0,1-.89-.22v-1a5.77,5.77,0,0,0,.91.22,6.15,6.15,0,0,0,.93.08,1.84,1.84,0,0,0,1.06-.25.82.82,0,0,0,.34-.72.88.88,0,0,0-.1-.45,1,1,0,0,0-.35-.3A2.67,2.67,0,0,0,116,11l-.47-.12a2.78,2.78,0,0,1-1.35-.7,1.73,1.73,0,0,1-.45-1.24,1.77,1.77,0,0,1,.69-1.49,3.24,3.24,0,0,1,2-.53,7.77,7.77,0,0,1,.85,0,6.43,6.43,0,0,1,.74.15v1a5.21,5.21,0,0,0-.73-.16,5.29,5.29,0,0,0-.8-.05,2.16,2.16,0,0,0-1.16.24.79.79,0,0,0-.37.7.94.94,0,0,0,.09.43.93.93,0,0,0,.32.3,3,3,0,0,0,.6.23l.47.11a3.12,3.12,0,0,1,1.45.72,1.71,1.71,0,0,1,.46,1.25,1.84,1.84,0,0,1-1.22,1.81,3.8,3.8,0,0,1-1.42.24A6,6,0,0,1,114.81,13.89Z" transform="translate(1 0.54)"/><path class="cls-2" d="M14.42,18.77h.74l-2.45,6.86H11.62L9.17,18.77H10l2.22,6.28Z" transform="translate(1 0.54)"/><path class="cls-2" d="M15.9,19.39a.54.54,0,0,1,0-.7.56.56,0,0,1,.38-.12.57.57,0,0,1,.39.12.54.54,0,0,1,0,.7.57.57,0,0,1-.39.12A.56.56,0,0,1,15.9,19.39Zm0,6.24v-5h.75v5Z" transform="translate(1 0.54)"/><path class="cls-2" d="M17.87,25.52v-.6a4.73,4.73,0,0,0,1.39.21c.83,0,1.25-.28,1.25-.85a.7.7,0,0,0-.18-.52,1.2,1.2,0,0,0-.6-.27l-.68-.14a1.8,1.8,0,0,1-1-.48,1.28,1.28,0,0,1-.31-.89,1.38,1.38,0,0,1,.22-.76,1.5,1.5,0,0,1,.67-.52,3,3,0,0,1,1.11-.18,4.66,4.66,0,0,1,1.18.15v.6l-.58-.12a5.47,5.47,0,0,0-.59,0,1.72,1.72,0,0,0-1,.23.76.76,0,0,0-.31.62.7.7,0,0,0,.18.5,1,1,0,0,0,.58.28l.68.14a1.77,1.77,0,0,1,1,.47,1.25,1.25,0,0,1,.31.9,1.3,1.3,0,0,1-.5,1.08,2.35,2.35,0,0,1-1.46.39A4.67,4.67,0,0,1,17.87,25.52Z" transform="translate(1 0.54)"/><path class="cls-2" d="M22.22,19.39a.46.46,0,0,1-.13-.35.47.47,0,0,1,.14-.35.66.66,0,0,1,.76,0,.54.54,0,0,1,0,.7.56.56,0,0,1-.38.12A.57.57,0,0,1,22.22,19.39Zm0,6.24v-5H23v5Z" transform="translate(1 0.54)"/><path class="cls-2" d="M27.09,25v.63a3.53,3.53,0,0,1-.78.09,1.46,1.46,0,0,1-1.63-1.67V21.21h-.95V20.6h.95l.12-1.83h.63V20.6H27v.61H25.43v2.73a1.21,1.21,0,0,0,.25.87,1,1,0,0,0,.79.27A3.1,3.1,0,0,0,27.09,25Z" transform="translate(1 0.54)"/><path class="cls-2" d="M30.63,20.69a1.25,1.25,0,0,1,.63.57,2.21,2.21,0,0,1,.22,1.07v3.3h-.63l-.05-.56h-.05a1.52,1.52,0,0,1-.63.48,2,2,0,0,1-.82.17,1.87,1.87,0,0,1-.82-.17,1.19,1.19,0,0,1-.52-.47,1.36,1.36,0,0,1-.19-.74,1.27,1.27,0,0,1,.44-1,2.63,2.63,0,0,1,1.39-.46l1.15-.12V22.3a1.54,1.54,0,0,0-.14-.71.8.8,0,0,0-.43-.36,2.1,2.1,0,0,0-.73-.1,5.43,5.43,0,0,0-.67.05,4.39,4.39,0,0,0-.69.18v-.62a4.25,4.25,0,0,1,.7-.16,5.17,5.17,0,0,1,.76-.06A3,3,0,0,1,30.63,20.69ZM30.17,25a1.58,1.58,0,0,0,.58-.46v-1.3l-1.1.12a1.61,1.61,0,0,0-.86.29.77.77,0,0,0-.26.63.84.84,0,0,0,.24.65,1,1,0,0,0,.71.22A1.65,1.65,0,0,0,30.17,25Zm-.79-5.17,1-1.68h.8l-1.12,1.68Z" transform="translate(1 0.54)"/><path class="cls-2" d="M35.09,20.6h.63l.05.57h0a2.16,2.16,0,0,1,.72-.48,2.27,2.27,0,0,1,.86-.17,1.63,1.63,0,0,1,1.19.42A1.9,1.9,0,0,1,39,22.31v3.32h-.75V22.34a1.23,1.23,0,0,0-.27-.89,1.06,1.06,0,0,0-.78-.27,1.86,1.86,0,0,0-.75.17,1.54,1.54,0,0,0-.64.5v3.78h-.74Z" transform="translate(1 0.54)"/><path class="cls-2" d="M40.74,25.29a1.81,1.81,0,0,1-.43-1.35V20.6h.74v3.31a1.16,1.16,0,0,0,.28.88,1.05,1.05,0,0,0,.75.26,1.84,1.84,0,0,0,.75-.16,1.51,1.51,0,0,0,.62-.5V20.6h.75v5h-.63l-.06-.55h0a2.23,2.23,0,0,1-.71.48,2.41,2.41,0,0,1-.84.16A1.59,1.59,0,0,1,40.74,25.29Z" transform="translate(1 0.54)"/><path class="cls-2" d="M49.31,23.36H46.08a2.79,2.79,0,0,0,.21,1,1.17,1.17,0,0,0,.57.55,2.18,2.18,0,0,0,1,.17,4.42,4.42,0,0,0,1.25-.2v.61a5,5,0,0,1-1.34.2,2.41,2.41,0,0,1-1.8-.62,2.83,2.83,0,0,1-.59-2,3,3,0,0,1,.54-1.94,1.85,1.85,0,0,1,1.5-.65,1.71,1.71,0,0,1,1.44.65,3.19,3.19,0,0,1,.5,2Zm-2.88-1.88a2.38,2.38,0,0,0-.35,1.37h2.51a2.46,2.46,0,0,0-.32-1.37,1.06,1.06,0,0,0-.91-.42A1.09,1.09,0,0,0,46.43,21.48Z" transform="translate(1 0.54)"/><path class="cls-2" d="M50.18,25.52v-.6a4.8,4.8,0,0,0,1.4.21c.83,0,1.24-.28,1.24-.85a.7.7,0,0,0-.18-.52,1.2,1.2,0,0,0-.59-.27l-.69-.14a1.84,1.84,0,0,1-1-.48,1.28,1.28,0,0,1-.3-.89,1.31,1.31,0,0,1,.22-.76A1.41,1.41,0,0,1,51,20.7a3,3,0,0,1,1.11-.18,4.79,4.79,0,0,1,1.19.15v.6l-.59-.12a5.28,5.28,0,0,0-.58,0,1.68,1.68,0,0,0-1,.23A.79.79,0,0,0,51,22.46a1.05,1.05,0,0,0,.58.28l.68.14a1.84,1.84,0,0,1,1,.47,1.43,1.43,0,0,1-.2,2,2.34,2.34,0,0,1-1.45.39A4.73,4.73,0,0,1,50.18,25.52Z" transform="translate(1 0.54)"/><path class="cls-2" d="M57.2,25v.63a3.53,3.53,0,0,1-.78.09,1.46,1.46,0,0,1-1.63-1.67V21.21h-.95V20.6h.95l.12-1.83h.63V20.6h1.58v.61H55.54v2.73a1.21,1.21,0,0,0,.25.87,1,1,0,0,0,.79.27A3.1,3.1,0,0,0,57.2,25Z" transform="translate(1 0.54)"/><path class="cls-2" d="M58,20.6h.62l.06.67h.05a1.65,1.65,0,0,1,.64-.53,1.84,1.84,0,0,1,.83-.19,1.9,1.9,0,0,1,.41,0v.69a2.06,2.06,0,0,0-.44,0,1.91,1.91,0,0,0-.79.19,1.57,1.57,0,0,0-.64.52v3.68H58Z" transform="translate(1 0.54)"/><path class="cls-2" d="M63.74,20.69a1.32,1.32,0,0,1,.64.57,2.34,2.34,0,0,1,.21,1.07v3.3H64l-.06-.56h0a1.55,1.55,0,0,1-.62.48,2.09,2.09,0,0,1-.83.17,1.83,1.83,0,0,1-.81-.17,1.22,1.22,0,0,1-.53-.47,1.45,1.45,0,0,1-.18-.74,1.27,1.27,0,0,1,.43-1,2.67,2.67,0,0,1,1.39-.46l1.15-.12V22.3a1.54,1.54,0,0,0-.14-.71.82.82,0,0,0-.42-.36,2.2,2.2,0,0,0-.74-.1,5.14,5.14,0,0,0-.66.05,4.23,4.23,0,0,0-.7.18v-.62a4.15,4.15,0,0,1,.71-.16,4.93,4.93,0,0,1,.75-.06A3,3,0,0,1,63.74,20.69ZM63.28,25a1.58,1.58,0,0,0,.58-.46v-1.3l-1.1.12a1.61,1.61,0,0,0-.86.29.8.8,0,0,0-.26.63.84.84,0,0,0,.24.65,1,1,0,0,0,.71.22A1.65,1.65,0,0,0,63.28,25Z" transform="translate(1 0.54)"/><path class="cls-2" d="M74.37,20.6h.7l-1.47,5h-.87l-1.3-4.3-1.3,4.3h-.87l-1.48-5h.73l1.22,4.26L71,20.6h.87l1.27,4.24Z" transform="translate(1 0.54)"/><path class="cls-2" d="M79.73,23.36H76.51a2.43,2.43,0,0,0,.21,1,1.19,1.19,0,0,0,.56.55,2.21,2.21,0,0,0,1,.17,4.36,4.36,0,0,0,1.25-.2v.61a4.84,4.84,0,0,1-1.34.2,2.37,2.37,0,0,1-1.79-.62,2.79,2.79,0,0,1-.59-2,3,3,0,0,1,.53-1.94,1.85,1.85,0,0,1,1.5-.65,1.74,1.74,0,0,1,1.45.65,3.2,3.2,0,0,1,.49,2Zm-2.88-1.88a2.38,2.38,0,0,0-.34,1.37H79a2.37,2.37,0,0,0-.33-1.37,1,1,0,0,0-.9-.42A1.12,1.12,0,0,0,76.85,21.48Z" transform="translate(1 0.54)"/><path class="cls-2" d="M81.55,25.66a3.43,3.43,0,0,1-.75-.17V18.14h.74v3h0a1.72,1.72,0,0,1,.59-.44,2.08,2.08,0,0,1,1.79.09,1.76,1.76,0,0,1,.68.82A3.46,3.46,0,0,1,84.9,23c0,1.8-.85,2.7-2.54,2.7A5.52,5.52,0,0,1,81.55,25.66Zm2.17-1a2.32,2.32,0,0,0,.43-1.54,2.35,2.35,0,0,0-.37-1.49,1.25,1.25,0,0,0-1-.44,1.57,1.57,0,0,0-.68.15,1.42,1.42,0,0,0-.54.44V25a3,3,0,0,0,.87.11A1.68,1.68,0,0,0,83.72,24.63Z" transform="translate(1 0.54)"/><path class="cls-2" d="M16,31.74h.7l-1.47,5h-.87l-1.3-4.3-1.3,4.3h-.88l-1.47-5h.73L11.35,36l1.27-4.26h.88L14.77,36Z" transform="translate(1 0.54)"/><path class="cls-2" d="M23.83,31.74h.71l-1.47,5h-.88l-1.29-4.3-1.31,4.3h-.87l-1.47-5H18L19.19,36l1.28-4.26h.87L22.61,36Z" transform="translate(1 0.54)"/><path class="cls-2" d="M31.68,31.74h.7l-1.46,5H30l-1.3-4.3-1.3,4.3h-.87l-1.48-5h.73L27,36l1.28-4.26h.87L30.46,36Z" transform="translate(1 0.54)"/><path class="cls-2" d="M33,36.69a.51.51,0,0,1-.14-.37.55.55,0,0,1,.92-.38.5.5,0,0,1,.15.38.5.5,0,0,1-.15.37.61.61,0,0,1-.78,0Z" transform="translate(1 0.54)"/><path class="cls-2" d="M35.52,36.43a1.81,1.81,0,0,1-.43-1.35V31.74h.74V35a1.19,1.19,0,0,0,.27.88,1.05,1.05,0,0,0,.76.27,1.86,1.86,0,0,0,.75-.17,1.51,1.51,0,0,0,.62-.5V31.74H39v5h-.63l-.06-.55h0a2,2,0,0,1-.71.47,2.2,2.2,0,0,1-.84.16A1.62,1.62,0,0,1,35.52,36.43Z" transform="translate(1 0.54)"/><path class="cls-2" d="M40.18,36.65v-.59a5.15,5.15,0,0,0,1.4.2c.83,0,1.24-.28,1.24-.84a.7.7,0,0,0-.18-.52,1.09,1.09,0,0,0-.59-.28l-.69-.14a1.71,1.71,0,0,1-1-.48,1.28,1.28,0,0,1-.3-.89A1.31,1.31,0,0,1,41,31.84a3,3,0,0,1,1.11-.18,4.79,4.79,0,0,1,1.19.15v.6a3.43,3.43,0,0,0-.59-.12,3.6,3.6,0,0,0-.58,0,1.68,1.68,0,0,0-1,.23.72.72,0,0,0-.31.62.76.76,0,0,0,.17.5,1,1,0,0,0,.58.27l.68.14a1.91,1.91,0,0,1,1,.48,1.43,1.43,0,0,1-.2,2,2.34,2.34,0,0,1-1.45.39A4.42,4.42,0,0,1,40.18,36.65Z" transform="translate(1 0.54)"/><path class="cls-2" d="M44.93,36.43a1.81,1.81,0,0,1-.43-1.35V31.74h.74V35a1.19,1.19,0,0,0,.27.88,1,1,0,0,0,.76.27A1.78,1.78,0,0,0,47,36a1.61,1.61,0,0,0,.63-.5V31.74h.74v5h-.63l0-.55h-.05a1.88,1.88,0,0,1-.71.47,2.13,2.13,0,0,1-.84.16A1.58,1.58,0,0,1,44.93,36.43Z" transform="translate(1 0.54)"/><path class="cls-2" d="M52.36,31.83a1.19,1.19,0,0,1,.64.57,2.31,2.31,0,0,1,.21,1.07v3.3h-.62l-.06-.56h-.05a1.62,1.62,0,0,1-.62.47,1.93,1.93,0,0,1-.83.17,1.86,1.86,0,0,1-.81-.16,1.18,1.18,0,0,1-.53-.48,1.41,1.41,0,0,1-.18-.73,1.25,1.25,0,0,1,.43-1A2.53,2.53,0,0,1,51.33,34l1.15-.12v-.44a1.38,1.38,0,0,0-.14-.7.75.75,0,0,0-.42-.36,2.14,2.14,0,0,0-.74-.11,4,4,0,0,0-.66.06,4.2,4.2,0,0,0-.7.17v-.61a4.35,4.35,0,0,1,.71-.17,6.59,6.59,0,0,1,.75-.05A2.78,2.78,0,0,1,52.36,31.83Zm-.46,4.3a1.5,1.5,0,0,0,.58-.46v-1.3l-1.1.12a1.54,1.54,0,0,0-.85.28.81.81,0,0,0-.27.64.84.84,0,0,0,.24.65,1.07,1.07,0,0,0,.72.22A1.64,1.64,0,0,0,51.9,36.13Z" transform="translate(1 0.54)"/><path class="cls-2" d="M54.56,31.74h.62l.06.67h0a1.68,1.68,0,0,1,.64-.54,2,2,0,0,1,.83-.19,2.71,2.71,0,0,1,.4,0v.69a2.94,2.94,0,0,0-.44,0,1.93,1.93,0,0,0-.79.18,1.63,1.63,0,0,0-.63.53v3.68h-.74Z" transform="translate(1 0.54)"/><path class="cls-2" d="M57.93,30.52a.44.44,0,0,1-.13-.34.45.45,0,0,1,.13-.35.52.52,0,0,1,.38-.13.53.53,0,0,1,.39.13.45.45,0,0,1,.13.35.44.44,0,0,1-.13.34.57.57,0,0,1-.39.13A.56.56,0,0,1,57.93,30.52Zm0,6.25v-5h.75v5Z" transform="translate(1 0.54)"/><path class="cls-2" d="M60.39,36.22a2.94,2.94,0,0,1-.56-2,2.92,2.92,0,0,1,.56-2A2,2,0,0,1,62,31.66a2,2,0,0,1,1.58.63,2.94,2.94,0,0,1,.56,2,2.91,2.91,0,0,1-.57,2,2.26,2.26,0,0,1-3.15,0ZM63,35.8a2.61,2.61,0,0,0,.35-1.53A2.64,2.64,0,0,0,63,32.72a1.38,1.38,0,0,0-2.06,0,2.49,2.49,0,0,0-.36,1.53,2.53,2.53,0,0,0,.36,1.54,1.21,1.21,0,0,0,1,.46A1.24,1.24,0,0,0,63,35.8Z" transform="translate(1 0.54)"/><path class="cls-2" d="M65.05,36.65v-.59a5.15,5.15,0,0,0,1.4.2c.83,0,1.24-.28,1.24-.84a.7.7,0,0,0-.18-.52,1,1,0,0,0-.59-.28l-.68-.14a1.71,1.71,0,0,1-1-.48,1.28,1.28,0,0,1-.3-.89,1.33,1.33,0,0,1,.22-.76,1.39,1.39,0,0,1,.66-.51A3,3,0,0,1,67,31.66a4.73,4.73,0,0,1,1.19.15v.6a3.43,3.43,0,0,0-.59-.12,3.6,3.6,0,0,0-.58,0,1.68,1.68,0,0,0-1,.23.72.72,0,0,0-.31.62.76.76,0,0,0,.17.5,1.08,1.08,0,0,0,.58.27l.68.14a1.91,1.91,0,0,1,1,.48,1.43,1.43,0,0,1-.2,2,2.34,2.34,0,0,1-1.45.39A4.42,4.42,0,0,1,65.05,36.65Z" transform="translate(1 0.54)"/><path class="cls-2" d="M70.16,29.63a1.8,1.8,0,0,1,1.32-.45,3.58,3.58,0,0,1,.68.06v.63a3,3,0,0,0-.6-.06,1.19,1.19,0,0,0-.85.26,1.16,1.16,0,0,0-.27.85v.82H72v.61H70.44v4.42H69.7V32.35h-1v-.61h1V31A1.79,1.79,0,0,1,70.16,29.63Zm3.29.2a.45.45,0,0,1,.13.35.44.44,0,0,1-.13.34.56.56,0,0,1-.38.13.57.57,0,0,1-.39-.13.44.44,0,0,1-.13-.34.45.45,0,0,1,.13-.35.53.53,0,0,1,.39-.13A.52.52,0,0,1,73.45,29.83Zm-.75,6.94v-5h.74v5Z" transform="translate(1 0.54)"/><path class="cls-2" d="M74.84,31.74h.63l0,.57h0a2.36,2.36,0,0,1,.72-.49,2.27,2.27,0,0,1,.86-.16,1.63,1.63,0,0,1,1.19.42,1.83,1.83,0,0,1,.43,1.36v3.33H78V33.48a1.17,1.17,0,0,0-.28-.89,1.06,1.06,0,0,0-.78-.27,1.84,1.84,0,0,0-.75.16,1.55,1.55,0,0,0-.63.51v3.78h-.75Z" transform="translate(1 0.54)"/><path class="cls-2" d="M82.7,31.83a1.17,1.17,0,0,1,.63.57,2.18,2.18,0,0,1,.22,1.07v3.3h-.62l-.06-.56h-.05a1.62,1.62,0,0,1-.62.47,2,2,0,0,1-.83.17,1.8,1.8,0,0,1-.81-.16,1.18,1.18,0,0,1-.53-.48,1.41,1.41,0,0,1-.18-.73,1.25,1.25,0,0,1,.43-1A2.47,2.47,0,0,1,81.67,34l1.15-.12v-.44a1.5,1.5,0,0,0-.14-.7.82.82,0,0,0-.42-.36,2.18,2.18,0,0,0-.74-.11,4.06,4.06,0,0,0-.67.06,4.34,4.34,0,0,0-.69.17v-.61a4.11,4.11,0,0,1,.71-.17,6.59,6.59,0,0,1,.75-.05A2.78,2.78,0,0,1,82.7,31.83Zm-.46,4.3a1.58,1.58,0,0,0,.58-.46v-1.3l-1.1.12a1.61,1.61,0,0,0-.86.28,1,1,0,0,0,0,1.29,1.06,1.06,0,0,0,.71.22A1.65,1.65,0,0,0,82.24,36.13Z" transform="translate(1 0.54)"/><path class="cls-2" d="M84.89,31.74h.63l0,.57h.05a2.36,2.36,0,0,1,.72-.49,2.28,2.28,0,0,1,.87-.16,1.62,1.62,0,0,1,1.18.42,1.83,1.83,0,0,1,.43,1.36v3.33h-.74V33.48a1.21,1.21,0,0,0-.27-.89,1.1,1.1,0,0,0-.79-.27,1.84,1.84,0,0,0-.75.16,1.55,1.55,0,0,0-.63.51v3.78h-.75Z" transform="translate(1 0.54)"/><path class="cls-2" d="M90.47,36.23a2.89,2.89,0,0,1-.56-2,2.69,2.69,0,0,1,.61-2,2.37,2.37,0,0,1,1.8-.63,3.72,3.72,0,0,1,1,.13v.63a3.56,3.56,0,0,0-.95-.13,2.26,2.26,0,0,0-1,.19,1.24,1.24,0,0,0-.57.62,3,3,0,0,0-.18,1.14,3.07,3.07,0,0,0,.17,1.15,1.21,1.21,0,0,0,.52.64,1.75,1.75,0,0,0,.87.2A3.52,3.52,0,0,0,93.35,36v.63a3.6,3.6,0,0,1-1.22.21A2.12,2.12,0,0,1,90.47,36.23Z" transform="translate(1 0.54)"/><path class="cls-2" d="M94.24,30.52a.44.44,0,0,1-.13-.34.42.42,0,0,1,.14-.35.5.5,0,0,1,.38-.13.52.52,0,0,1,.38.13.45.45,0,0,1,.13.35.44.44,0,0,1-.13.34.56.56,0,0,1-.38.13A.57.57,0,0,1,94.24,30.52Zm0,6.25v-5H95v5Z" transform="translate(1 0.54)"/><path class="cls-2" d="M100.12,34.5H96.89a2.73,2.73,0,0,0,.21,1,1.19,1.19,0,0,0,.57.56,2.32,2.32,0,0,0,.94.17,4.81,4.81,0,0,0,1.26-.2v.6a4.61,4.61,0,0,1-1.34.21,2.39,2.39,0,0,1-1.8-.62,2.85,2.85,0,0,1-.59-2,3,3,0,0,1,.54-1.94,1.81,1.81,0,0,1,1.5-.65,1.7,1.7,0,0,1,1.44.64,3.25,3.25,0,0,1,.5,2Zm-2.88-1.88A2.35,2.35,0,0,0,96.89,34H99.4a2.5,2.5,0,0,0-.32-1.38,1.23,1.23,0,0,0-1.84,0Z" transform="translate(1 0.54)"/><path class="cls-2" d="M101.18,31.74h.63l.06.67h0a1.72,1.72,0,0,1,.65-.54,1.93,1.93,0,0,1,.82-.19,2.71,2.71,0,0,1,.41,0v.69a2.94,2.94,0,0,0-.44,0,1.93,1.93,0,0,0-.79.18,1.56,1.56,0,0,0-.63.53v3.68h-.75Z" transform="translate(1 0.54)"/><path class="cls-2" d="M104.72,36.22a2.89,2.89,0,0,1-.56-2,2.87,2.87,0,0,1,.56-2,2,2,0,0,1,1.57-.64,2,2,0,0,1,1.59.63,2.94,2.94,0,0,1,.56,2,2.91,2.91,0,0,1-.57,2,2,2,0,0,1-1.58.64A2,2,0,0,1,104.72,36.22Zm2.6-.42a2.53,2.53,0,0,0,.36-1.53,2.56,2.56,0,0,0-.36-1.55,1.37,1.37,0,0,0-2,0,2.49,2.49,0,0,0-.36,1.53,2.61,2.61,0,0,0,.35,1.54,1.39,1.39,0,0,0,2.06,0Z" transform="translate(1 0.54)"/><path class="cls-2" d="M109.38,36.65v-.59a5.15,5.15,0,0,0,1.4.2c.83,0,1.24-.28,1.24-.84a.7.7,0,0,0-.18-.52,1.12,1.12,0,0,0-.59-.28l-.69-.14a1.68,1.68,0,0,1-1-.48,1.28,1.28,0,0,1-.3-.89,1.4,1.4,0,0,1,.21-.76,1.42,1.42,0,0,1,.67-.51,3,3,0,0,1,1.11-.18,4.79,4.79,0,0,1,1.19.15v.6a3.43,3.43,0,0,0-.59-.12,3.6,3.6,0,0,0-.58,0,1.68,1.68,0,0,0-1,.23.72.72,0,0,0-.31.62.71.71,0,0,0,.17.5,1,1,0,0,0,.58.27l.68.14a1.91,1.91,0,0,1,1,.48,1.45,1.45,0,0,1-.2,2,2.34,2.34,0,0,1-1.45.39A4.42,4.42,0,0,1,109.38,36.65Z" transform="translate(1 0.54)"/><path class="cls-2" d="M113.7,36.69a.51.51,0,0,1-.14-.37.48.48,0,0,1,.14-.38.61.61,0,0,1,.78,0,.5.5,0,0,1,.15.38.5.5,0,0,1-.15.37.61.61,0,0,1-.78,0Z" transform="translate(1 0.54)"/><path class="cls-2" d="M116.48,38.85a4.75,4.75,0,0,1-.72-.17v-.62a5.07,5.07,0,0,0,1.44.23,2.34,2.34,0,0,0,.91-.15,1.05,1.05,0,0,0,.52-.5,2.13,2.13,0,0,0,.17-.92v-.48h0a1.53,1.53,0,0,1-.59.43,1.87,1.87,0,0,1-.8.16,1.91,1.91,0,0,1-1-.25,1.73,1.73,0,0,1-.68-.81,3.37,3.37,0,0,1-.26-1.42,2.83,2.83,0,0,1,.64-2,2.56,2.56,0,0,1,1.91-.67,5.49,5.49,0,0,1,.8.06,4.68,4.68,0,0,1,.75.16v4.73a3,3,0,0,1-.25,1.32,1.6,1.6,0,0,1-.76.74,3,3,0,0,1-1.29.23A5.1,5.1,0,0,1,116.48,38.85Zm1.78-2.8a1.26,1.26,0,0,0,.54-.43V32.37a3.58,3.58,0,0,0-.87-.11,1.67,1.67,0,0,0-1.3.49,2.24,2.24,0,0,0-.43,1.53,2.36,2.36,0,0,0,.36,1.49,1.25,1.25,0,0,0,1,.43A1.6,1.6,0,0,0,118.26,36.05Z" transform="translate(1 0.54)"/><path class="cls-2" d="M121.24,36.22a2.94,2.94,0,0,1-.56-2,2.92,2.92,0,0,1,.56-2,2.28,2.28,0,0,1,3.16,0,2.89,2.89,0,0,1,.56,2,3,3,0,0,1-.56,2,2,2,0,0,1-1.58.64A2,2,0,0,1,121.24,36.22Zm2.61-.42a2.61,2.61,0,0,0,.35-1.53,2.64,2.64,0,0,0-.35-1.55,1.38,1.38,0,0,0-2.06,0,2.5,2.5,0,0,0-.35,1.53,2.53,2.53,0,0,0,.35,1.54,1.21,1.21,0,0,0,1,.46A1.24,1.24,0,0,0,123.85,35.8Z" transform="translate(1 0.54)"/><path class="cls-2" d="M126.84,36.8a4.44,4.44,0,0,1-.76-.17V29.27h.75v3h0a1.65,1.65,0,0,1,.6-.43,1.87,1.87,0,0,1,.8-.16,1.91,1.91,0,0,1,1,.25,1.73,1.73,0,0,1,.68.81,3.47,3.47,0,0,1,.26,1.44q0,2.7-2.55,2.7A5.39,5.39,0,0,1,126.84,36.8Zm2.16-1a2.28,2.28,0,0,0,.43-1.55,2.31,2.31,0,0,0-.37-1.49,1.25,1.25,0,0,0-1-.43,1.6,1.6,0,0,0-.68.15,1.3,1.3,0,0,0-.53.43v3.25a2.84,2.84,0,0,0,.86.12A1.67,1.67,0,0,0,129,35.77Z" transform="translate(1 0.54)"/><path class="cls-2" d="M131.15,36.69a.48.48,0,0,1-.15-.37.55.55,0,0,1,.92-.38.5.5,0,0,1,.15.38.5.5,0,0,1-.15.37.56.56,0,0,1-.39.14A.54.54,0,0,1,131.15,36.69Z" transform="translate(1 0.54)"/><path class="cls-2" d="M135.87,31.83a1.19,1.19,0,0,1,.64.57,2.31,2.31,0,0,1,.21,1.07v3.3h-.62l-.06-.56h0a1.62,1.62,0,0,1-.62.47,1.93,1.93,0,0,1-.83.17,1.86,1.86,0,0,1-.81-.16,1.18,1.18,0,0,1-.53-.48,1.41,1.41,0,0,1-.18-.73,1.25,1.25,0,0,1,.43-1,2.53,2.53,0,0,1,1.39-.46l1.15-.12v-.44a1.38,1.38,0,0,0-.14-.7.75.75,0,0,0-.42-.36,2.14,2.14,0,0,0-.74-.11,4,4,0,0,0-.66.06,4.2,4.2,0,0,0-.7.17v-.61a4.35,4.35,0,0,1,.71-.17,6.59,6.59,0,0,1,.75-.05A2.78,2.78,0,0,1,135.87,31.83Zm-.46,4.3a1.5,1.5,0,0,0,.58-.46v-1.3l-1.1.12a1.54,1.54,0,0,0-.85.28.81.81,0,0,0-.27.64.84.84,0,0,0,.24.65,1.07,1.07,0,0,0,.72.22A1.64,1.64,0,0,0,135.41,36.13Z" transform="translate(1 0.54)"/><path class="cls-2" d="M138.07,31.74h.62l.06.67h0a1.8,1.8,0,0,1,.65-.54,1.94,1.94,0,0,1,.83-.19,2.71,2.71,0,0,1,.4,0v.69a2.94,2.94,0,0,0-.44,0,1.93,1.93,0,0,0-.79.18,1.63,1.63,0,0,0-.63.53v3.68h-.74Z" transform="translate(1 0.54)"/></svg>